<svg width="24" height="24" viewBox="0 0 24 24" fill="none" class="svg-icon svg-customers" xmlns="http://www.w3.org/2000/svg">
  <defs>
    <linearGradient id="grad-customers" x1="0%" y1="0%" x2="100%" y2="100%">
      <stop offset="0%" stop-color="#0f766e" />
      <stop offset="100%" stop-color="#2563eb" />
    </linearGradient>
  </defs>
  <path d="M4 20V7a3 3 0 0 1 3-3h10a3 3 0 0 1 3 3v13" fill="url(#grad-customers)" fill-opacity="0.12" stroke="url(#grad-customers)" stroke-width="2" stroke-linecap="round" stroke-linejoin="round" />
  <path d="M8 20v-5a2 2 0 0 1 2-2h4a2 2 0 0 1 2 2v5" stroke="url(#grad-customers)" stroke-width="2" stroke-linecap="round" stroke-linejoin="round" />
  <path d="M8 8h2M14 8h2M8 11h8" stroke="url(#grad-customers)" stroke-width="1.8" stroke-linecap="round" />
  <circle cx="18" cy="6" r="3" fill="#ffffff" stroke="url(#grad-customers)" stroke-width="1.5" />
  <path d="M16.9 6h2.2M18 4.9v2.2" stroke="url(#grad-customers)" stroke-width="1.3" stroke-linecap="round" />
</svg>
