<svg width="24" height="24" viewBox="0 0 24 24" fill="none" class="svg-icon svg-research" xmlns="http://www.w3.org/2000/svg">
  <defs>
    <linearGradient id="grad-research" x1="0%" y1="0%" x2="100%" y2="100%">
      <stop offset="0%" stop-color="#0891b2" />
      <stop offset="100%" stop-color="#10b981" />
    </linearGradient>
  </defs>
  <path d="M6 3h12" stroke="url(#grad-research)" stroke-width="2" stroke-linecap="round"></path>
  <path d="M8 3v4c0 1.66-1.34 3-3 3v0a7 7 0 0 0-2 4.9V20a2 2 0 0 0 2 2h14a2 2 0 0 0 2-2v-5.1a7 7 0 0 0-2-4.9v0c-1.66 0-3-1.34-3-3V3" fill="url(#grad-research)" fill-opacity="0.12" stroke="url(#grad-research)" stroke-width="2" stroke-linecap="round" stroke-linejoin="round"></path>
  <line x1="8.5" y1="11" x2="15.5" y2="11" stroke="url(#grad-research)" stroke-width="2"></line>
  <circle cx="12" cy="16" r="2.5" fill="url(#grad-research)"></circle>
  <circle cx="9" cy="18" r="1" fill="#ffffff"></circle>
  <circle cx="15" cy="15" r="1" fill="#ffffff"></circle>
</svg>
