<svg width="24" height="24" viewBox="0 0 24 24" fill="none" class="svg-icon svg-conversations" xmlns="http://www.w3.org/2000/svg">
  <defs>
    <linearGradient id="grad-conversations" x1="0%" y1="0%" x2="100%" y2="100%">
      <stop offset="0%" stop-color="#4f46e5" />
      <stop offset="100%" stop-color="#7c3aed" />
    </linearGradient>
  </defs>
  <path d="M21 11.5a8.38 8.38 0 0 1-.9 3.8 8.5 8.5 0 0 1-7.6 4.7 8.38 8.38 0 0 1-3.8-.9L3 21l1.9-5.7a8.38 8.38 0 0 1-.9-3.8 8.5 8.5 0 0 1 4.7-7.6 8.38 8.38 0 0 1 3.8-.9h.5a8.48 8.48 0 0 1 8 8v.5z" fill="url(#grad-conversations)" fill-opacity="0.12" stroke="url(#grad-conversations)" stroke-width="2" stroke-linecap="round" stroke-linejoin="round"></path>
  <circle cx="9" cy="11" r="1.5" fill="url(#grad-conversations)"></circle>
  <circle cx="13" cy="11" r="1.5" fill="url(#grad-conversations)"></circle>
  <circle cx="17" cy="11" r="1.5" fill="url(#grad-conversations)"></circle>
</svg>
